{"title":"The Terminator Remastered 1984 BRRip XviD AC3 ANALOG","uid":12148259,"size":1769727031,"categoryP":"video","categoryS":"movies","magnet":"?xt=urn:btih:244eb3b63cb0bf3ddae50d748a57fef3a08ce259&amp;dn=The+Terminator+Remastered+1984+BRRip+XviD+AC3+ANALOG&amp;tr=udp%3A%2F%2Ftracker.openbittorrent.com%3A80&amp;tr=udp%3A%2F%2Fopen.demonii.com%3A1337&amp;tr=udp%3A%2F%2Ftracker.coppersurfer.tk%3A6969&amp;tr=udp%3A%2F%2Fexodus.desync.com%3A6969","seeders":2,"leechers":2,"uploader":"TerminatorFan","files":11,"time":1437524233,"description":"---------------\n* General *\n---------------\n\nComplete name : The.Terminator.Remastered.1984.BRRip.Xvid.Ac3.ANALOGT.T.R.BRR.ANALOG.avi\nFormat : AVI\nFormat/Info : Audio Video Interleave\nFile size : 1.63 GiB\nDuration : 1h 47mn\nOverall bit rate : 2 171 Kbps\n\n-------------\n* Video *\n-------------\n\nID : 0\nFormat : MPEG-4 Visual\nFormat profile : Advanced Simple@L5\nFormat settings, BVOP : 2\nFormat settings, QPel : No\nFormat settings, GMC : No warppoints\nFormat settings, Matrix : Default (MPEG)\nMuxing mode : Packed bitstream\nCodec ID : XVID\nCodec ID/Hint : XviD\nDuration : 1h 47mn\nBit rate : 1 715 Kbps\nWidth : 720 pixels\nHeight : 384 pixels\nDisplay aspect ratio : 1.85:1\nFrame rate : 23.976 fps\nColor space : YUV\nChroma subsampling : 4:2:0\nBit depth : 8 bits\nScan type : Progressive\nCompression mode : Lossy\nBits/(Pixel*Frame) : 0.259\nStream size : 1.29 GiB (79%)\nWriting library : XviD 1.2.1 (UTC 2008-12-04)\n\n-------------\n* Audio *\n-------------\n\nID : 1\nFormat : AC-3\nFormat/Info : Audio Coding 3\nMode extension : CM (complete main)\nFormat settings, Endianness : Big\nCodec ID : 2000\nDuration : 1h 47mn\nBit rate mode : Constant\nBit rate : 448 Kbps\nChannel(s) : 6 channels\nChannel positions : Front: L C R, Side: L R, LFE\nSampling rate : 48.0 KHz\nBit depth : 16 bits\nCompression mode : Lossy\nStream size : 344 MiB (21%)\nAlignment : Aligned on interleaves\nInterleave, duration : 64 ms (1.53 video frames)\nInterleave, preload duration : 192 ms\nTitle : 00000.track_4352_new_English_ANALOG\n\n\nThanks goes to the original encoder/provider, ANALOG.\n\n\nEnjoy &amp; Please Seed!","torrent":{"xt":"urn:btih:244eb3b63cb0bf3ddae50d748a57fef3a08ce259","amp;dn":"The+Terminator+Remastered+1984+BRRip+XviD+AC3+ANALOG","amp;tr":["udp%3A%2F%2Ftracker.openbittorrent.com%3A80","udp%3A%2F%2Fopen.demonii.com%3A1337","udp%3A%2F%2Ftracker.coppersurfer.tk%3A6969","udp%3A%2F%2Fexodus.desync.com%3A6969"],"infoHash":"244eb3b63cb0bf3ddae50d748a57fef3a08ce259","infoHashBuffer":{"type":"Buffer","data":[36,78,179,182,60,176,191,61,218,229,13,116,138,87,254,243,160,140,226,89]},"announce":[],"urlList":[]}}